<?xml version="1.0" encoding="UTF-8" standalone="no"?><!DOCTYPE svg PUBLIC "-//W3C//DTD SVG 1.1//EN" "http://www.w3.org/Graphics/SVG/1.1/DTD/svg11.dtd"><svg width="100%" height="100%" viewBox="0 0 512 512" version="1.1" xmlns="http://www.w3.org/2000/svg" xmlns:xlink="http://www.w3.org/1999/xlink" xml:space="preserve" xmlns:serif="http://www.serif.com/" style="fill-rule:evenodd;clip-rule:evenodd;stroke-linejoin:round;stroke-miterlimit:2;"><path d="M256,31c-123.431,0 -225,101.569 -225,225c0,123.431 101.569,225 225,225c123.431,0 225,-101.569 225,-225c-0.146,-123.376 -101.624,-224.854 -225,-225Zm0,409.091c-100.989,-0 -184.091,-83.102 -184.091,-184.091c0,-100.989 83.102,-184.091 184.091,-184.091c100.989,0 184.091,83.102 184.091,184.091c-0.123,100.943 -83.148,183.968 -184.091,184.091Z" style="fill:#c0c0c0;fill-rule:nonzero;"/><path d="M276.455,247.532l-0,-114.259c-0,-11.221 -9.234,-20.455 -20.455,-20.455c-11.221,0 -20.455,9.234 -20.455,20.455l0,122.727c0.002,5.422 2.159,10.628 5.994,14.461l61.363,61.364c3.812,3.682 8.91,5.742 14.21,5.742c11.221,-0 20.455,-9.234 20.455,-20.455c-0,-5.3 -2.06,-10.398 -5.742,-14.21l-55.37,-55.37Z" style="fill:#c0c0c0;fill-rule:nonzero;"/></svg>