<?xml version="1.0" encoding="UTF-8" standalone="no"?><!DOCTYPE svg PUBLIC "-//W3C//DTD SVG 1.1//EN" "http://www.w3.org/Graphics/SVG/1.1/DTD/svg11.dtd"><svg width="100%" height="100%" viewBox="0 0 512 512" version="1.1" xmlns="http://www.w3.org/2000/svg" xmlns:xlink="http://www.w3.org/1999/xlink" xml:space="preserve" xmlns:serif="http://www.serif.com/" style="fill-rule:evenodd;clip-rule:evenodd;stroke-linejoin:round;stroke-miterlimit:2;"><path d="M253.007,34c123.372,0.146 224.847,101.621 224.993,224.993l0,0.007c0,123.431 -101.569,225 -225,225c-123.431,0 -225,-101.569 -225,-225c0,-123.431 101.569,-225 225,-225l0.007,0Zm-0.011,398.23c94.989,-0.118 173.116,-78.245 173.234,-173.234c-0.002,-95.029 -78.2,-173.226 -173.23,-173.226c-95.031,-0 -173.23,78.199 -173.23,173.23c-0,95.03 78.197,173.228 173.226,173.23Z" style="fill:#c0c0c0;"/><path d="M279.881,249.916l51.859,51.858c0.028,0.029 0.057,0.058 0.085,0.087c4.838,5.009 7.546,11.709 7.546,18.674c-0,14.746 -12.135,26.881 -26.881,26.881c-6.966,-0 -13.665,-2.707 -18.675,-7.546c-0.029,-0.028 -0.058,-0.056 -0.086,-0.085l-59.733,-59.733c-5.039,-5.037 -7.874,-11.879 -7.877,-19.004l0,-119.471c0,-14.746 12.135,-26.881 26.881,-26.881c14.746,-0 26.881,12.135 26.881,26.881l-0,108.339Z" style="fill:#c0c0c0;"/></svg>