<?xml version="1.0" encoding="UTF-8" standalone="no"?><!DOCTYPE svg PUBLIC "-//W3C//DTD SVG 1.1//EN" "http://www.w3.org/Graphics/SVG/1.1/DTD/svg11.dtd"><svg width="100%" height="100%" viewBox="0 0 512 512" version="1.1" xmlns="http://www.w3.org/2000/svg" xmlns:xlink="http://www.w3.org/1999/xlink" xml:space="preserve" xmlns:serif="http://www.serif.com/" style="fill-rule:evenodd;clip-rule:evenodd;stroke-linejoin:round;stroke-miterlimit:2;"><path d="M334.107,33.245c0.002,0.001 0.004,0.003 0.005,0.005c0.01,0.008 0.02,0.018 0.03,0.027c0.045,0.037 0.091,0.077 0.138,0.12l0.325,0.299c0.021,0.019 0.043,0.039 0.064,0.059l0.311,0.298c0.019,0.018 0.038,0.036 0.056,0.054c-0,0 99.995,99.996 100,100c0.034,0.035 0.068,0.071 0.102,0.108c0.023,0.025 0.044,0.049 0.065,0.074l0.269,0.269c0.053,0.053 0.106,0.109 0.157,0.168c0.008,0.009 0.238,0.275 0.238,0.275c0.011,0.012 0.022,0.025 0.033,0.037c1.108,1.231 2.022,2.574 2.77,3.968c1.586,2.939 2.473,6.295 2.473,9.851l-0,303.061c-0,7.983 -3.171,15.639 -8.816,21.284l-1.397,1.396c-6.02,6.02 -14.184,9.402 -22.698,9.402l-305.293,-0c-7.983,-0 -15.639,-3.171 -21.283,-8.816l-1.397,-1.397c-6.02,-6.02 -9.402,-14.184 -9.402,-22.698l0,-391.007c0,-7.983 3.171,-15.639 8.816,-21.284l1.397,-1.396c6.02,-6.02 14.184,-9.402 22.698,-9.402l216.518,-0c3.556,-0 6.912,0.887 9.851,2.473c1.395,0.748 2.739,1.663 3.97,2.772Zm101.336,106.169c0.402,-0.301 0.73,-0.705 0.942,-1.183c0.333,-0.75 0.338,-1.586 0.047,-2.322c0.443,1.224 -0.397,2.318 -1.268,3.069c0.095,0.144 0.188,0.29 0.279,0.436Zm-97.3,-8.414l39.028,-0l-39.028,-39.029l-0,39.029Zm-35.714,5.804l-0,-70.09l-192.858,0l0,378.572l292.858,-0l-0,-278.572l-70.918,0c-7.187,0 -14.08,-2.855 -19.163,-7.937l-1.396,-1.397c-5.458,-5.457 -8.523,-12.859 -8.523,-20.576Z" style="fill:#c0c0c0;"/></svg>