<?xml version="1.0" encoding="UTF-8" standalone="no"?><!DOCTYPE svg PUBLIC "-//W3C//DTD SVG 1.1//EN" "http://www.w3.org/Graphics/SVG/1.1/DTD/svg11.dtd"><svg width="100%" height="100%" viewBox="0 0 512 512" version="1.1" xmlns="http://www.w3.org/2000/svg" xmlns:xlink="http://www.w3.org/1999/xlink" xml:space="preserve" xmlns:serif="http://www.serif.com/" style="fill-rule:evenodd;clip-rule:evenodd;stroke-linejoin:round;stroke-miterlimit:2;"><path d="M336.33,61.901c0.054,0.046 87.151,87.14 87.223,87.223c0.015,0.017 0.028,0.032 0.039,0.044c1.231,1.375 2.251,2.87 3.086,4.423c1.775,3.293 2.772,7.051 2.772,11.035l0,258.458c0,8.282 -3.289,16.224 -9.145,22.08l-1.192,1.191c-6.176,6.175 -14.551,9.645 -23.286,9.645l-260.361,0c-8.282,0 -16.225,-3.29 -22.08,-9.146l-1.191,-1.191c-6.176,-6.176 -9.645,-14.551 -9.645,-23.286l-0,-333.461c-0,-8.282 3.289,-16.224 9.145,-22.08l1.192,-1.191c6.176,-6.175 14.551,-9.645 23.286,-9.645l184.652,0c3.983,0 7.741,0.997 11.034,2.773c1.572,0.843 3.084,1.878 4.471,3.128Zm-36.29,92.446l0,-54.22l-153.363,0l0,311.746c0,-0 238.646,-0 238.646,-0l-0,-226.463l-54.925,0c-7.603,0 -14.894,-3.02 -20.271,-8.396l-1.19,-1.191c-5.697,-5.696 -8.897,-13.422 -8.897,-21.476Zm38.579,-8.526l26,0l-26,-26l0,26Z" style="fill:#c0c0c0;"/></svg>