<?xml version="1.0" encoding="UTF-8" standalone="no"?><!DOCTYPE svg PUBLIC "-//W3C//DTD SVG 1.1//EN" "http://www.w3.org/Graphics/SVG/1.1/DTD/svg11.dtd"><svg width="100%" height="100%" viewBox="0 0 512 512" version="1.1" xmlns="http://www.w3.org/2000/svg" xmlns:xlink="http://www.w3.org/1999/xlink" xml:space="preserve" xmlns:serif="http://www.serif.com/" style="fill-rule:evenodd;clip-rule:evenodd;stroke-linejoin:round;stroke-miterlimit:2;"><g id="_02"><path d="M416,156l-20,-0l0,-40c0,-10.972 -9.028,-20 -20,-20c-10.972,0 -20,9.028 -20,20l0,40l-80,-0l0,-40c0,-10.972 -9.028,-20 -20,-20c-10.972,0 -20,9.028 -20,20l0,40l-80,-0l-0,-40c-0,-10.972 -9.028,-20 -20,-20c-10.972,0 -20,9.028 -20,20l-0,40l-20,-0c-21.943,-0 -40,18.057 -40,40l-0,120c-0,21.943 18.057,40 40,40l20,-0l-0,40c-0,10.972 9.028,20 20,20c10.972,-0 20,-9.028 20,-20l-0,-40l80,-0l0,40c0,10.972 9.028,20 20,20c10.972,-0 20,-9.028 20,-20l0,-40l80,-0l0,40c0,10.972 9.028,20 20,20c10.972,-0 20,-9.028 20,-20l0,-40l20,-0c21.943,-0 40,-18.057 40,-40l0,-120c0,-21.943 -18.057,-40 -40,-40Zm-320,160l-0,-120l320,0l0,120l-320,0Z" style="fill:#c0c0c0;fill-rule:nonzero;"/></g></svg>