<?xml version="1.0" encoding="UTF-8" standalone="no"?><!DOCTYPE svg PUBLIC "-//W3C//DTD SVG 1.1//EN" "http://www.w3.org/Graphics/SVG/1.1/DTD/svg11.dtd"><svg width="100%" height="100%" viewBox="0 0 512 512" version="1.1" xmlns="http://www.w3.org/2000/svg" xmlns:xlink="http://www.w3.org/1999/xlink" xml:space="preserve" xmlns:serif="http://www.serif.com/" style="fill-rule:evenodd;clip-rule:evenodd;stroke-linejoin:round;stroke-miterlimit:2;"><path d="M410.964,152.852c24.705,0 45.036,20.331 45.036,45.037l0,116.222c0,24.706 -20.331,45.037 -45.036,45.037l-13.075,-0l-0,32.445c-0,14.081 -11.586,25.666 -25.666,25.666c-14.081,0 -25.666,-11.585 -25.666,-25.666l-0,-32.445l-64.891,-0l-0,32.445c-0,14.081 -11.586,25.666 -25.666,25.666c-14.08,0 -25.666,-11.585 -25.666,-25.666l0,-32.445l-64.891,-0l0,32.445c0,14.081 -11.585,25.666 -25.666,25.666c-14.08,0 -25.666,-11.585 -25.666,-25.666l0,-32.445l-13.075,-0c-24.705,-0 -45.036,-20.331 -45.036,-45.037l0,-116.222c0,-24.706 20.331,-45.037 45.036,-45.037l13.075,0l0,-32.445c0,-14.081 11.586,-25.666 25.666,-25.666c14.081,-0 25.666,11.585 25.666,25.666l0,32.445l64.891,0l0,-32.445c0,-14.081 11.586,-25.666 25.666,-25.666c14.08,-0 25.666,11.585 25.666,25.666l-0,32.445l64.891,0l-0,-32.445c-0,-14.081 11.585,-25.666 25.666,-25.666c14.08,-0 25.666,11.585 25.666,25.666l-0,32.445l13.075,0Zm-303.632,154.964l297.336,-0l0,-103.632l-297.336,0l-0,103.632Z" style="fill:#c0c0c0;"/></svg>