<?xml version="1.0" encoding="UTF-8" standalone="no"?><!DOCTYPE svg PUBLIC "-//W3C//DTD SVG 1.1//EN" "http://www.w3.org/Graphics/SVG/1.1/DTD/svg11.dtd"><svg width="100%" height="100%" viewBox="0 0 512 512" version="1.1" xmlns="http://www.w3.org/2000/svg" xmlns:xlink="http://www.w3.org/1999/xlink" xml:space="preserve" xmlns:serif="http://www.serif.com/" style="fill-rule:evenodd;clip-rule:evenodd;stroke-linejoin:round;stroke-miterlimit:2;"><rect x="310.687" y="383.441" width="25.555" height="89.516" style="fill:#ffb413;"/><path d="M310.687,411.507l0,-28.066l25.555,0l0,17.256c-8.204,4.178 -16.739,7.798 -25.555,10.81Z" style="fill:#814100;"/><path d="M320.099,474.202c-3.291,4.441 -8.965,4.878 -12.663,0.974c-3.697,-3.904 -4.027,-10.681 -0.736,-15.122c5.923,-7.995 6.867,-8.941 14.957,-13.892c17.573,-10.754 34.066,-9.933 50.172,2.283c4.168,3.16 5.383,9.784 2.71,14.783c-2.671,4.998 -8.224,6.49 -12.392,3.33c-10.396,-7.885 -21.048,-8.277 -32.39,-1.335c-5.226,3.197 -5.831,3.815 -9.658,8.979Z" style="fill:#ffb413;"/><path d="M375.681,454.799c-1.218,0.049 -2.457,0.064 -3.711,0.042c-17.171,-0.299 -31.045,-7.36 -31.356,-15.852c10.677,-1.442 21.023,1.726 31.215,9.456c1.994,1.512 3.311,3.815 3.852,6.354Z" style="fill:#fff;fill-opacity:0.5;"/><path d="M321.75,480.13c-4.248,3.07 -9.76,1.459 -12.304,-3.596c-2.544,-5.055 -1.161,-11.651 3.087,-14.721c7.644,-5.525 8.779,-6.093 17.724,-7.934c19.429,-3.998 34.929,2.684 47.208,20.12c3.177,4.511 2.674,11.278 -1.123,15.102c-3.796,3.823 -9.457,3.264 -12.635,-1.247c-7.925,-11.255 -17.97,-15.438 -30.512,-12.857c-5.777,1.19 -6.508,1.564 -11.445,5.133Z" style="fill:#c60;"/><path d="M367.641,491.069c-1.485,-0.603 -2.853,-1.681 -3.934,-3.215c-7.925,-11.255 -17.97,-15.438 -30.512,-12.857c-5.777,1.19 -6.508,1.564 -11.445,5.133c-4.248,3.07 -9.76,1.459 -12.304,-3.596c-0.188,-0.376 -0.357,-0.759 -0.503,-1.15c6.481,-5.995 15.405,-9.628 25.194,-9.458c16.231,0.284 29.726,10.939 33.504,25.143Z" style="fill-opacity:0.5;"/><rect x="155.419" y="383.492" width="25.555" height="89.516" style="fill:#ffb413;"/><path d="M155.419,399.442l0,-15.95l25.555,0l0,27.169c-8.825,-3.145 -17.36,-6.902 -25.555,-11.219Z" style="fill:#814100;"/><path d="M164.831,474.253c-3.291,4.443 -8.965,4.879 -12.663,0.974c-3.698,-3.904 -4.028,-10.679 -0.737,-15.122c5.924,-7.994 6.867,-8.941 14.957,-13.891c17.574,-10.755 34.066,-9.933 50.174,2.283c4.166,3.16 5.381,9.784 2.709,14.782c-2.672,4.999 -8.224,6.49 -12.392,3.33c-10.396,-7.885 -21.048,-8.276 -32.391,-1.334c-5.226,3.197 -5.831,3.814 -9.657,8.978Z" style="fill:#ffb413;"/><path d="M220.412,454.85c-1.218,0.05 -2.457,0.064 -3.711,0.043c-17.17,-0.299 -31.045,-7.361 -31.356,-15.853c10.678,-1.44 21.024,1.726 31.217,9.457c1.992,1.511 3.31,3.814 3.85,6.353Z" style="fill:#fff;fill-opacity:0.5;"/><path d="M166.482,480.181c-4.248,3.071 -9.761,1.46 -12.304,-3.595c-2.544,-5.054 -1.16,-11.651 3.086,-14.721c7.645,-5.526 8.779,-6.094 17.725,-7.935c19.428,-3.998 34.929,2.684 47.207,20.12c3.178,4.511 2.674,11.278 -1.122,15.102c-3.797,3.824 -9.458,3.265 -12.636,-1.247c-7.925,-11.255 -17.97,-15.436 -30.511,-12.855c-5.777,1.188 -6.508,1.563 -11.445,5.131Z" style="fill:#c60;"/><path d="M212.373,491.121c-1.486,-0.604 -2.854,-1.681 -3.935,-3.216c-7.925,-11.255 -17.97,-15.436 -30.511,-12.855c-5.777,1.188 -6.508,1.563 -11.445,5.131c-4.248,3.071 -9.761,1.46 -12.304,-3.595c-0.189,-0.376 -0.357,-0.76 -0.502,-1.151c6.479,-5.995 15.404,-9.628 25.192,-9.456c16.232,0.283 29.727,10.937 33.505,25.142Z" style="fill-opacity:0.5;"/><circle cx="247.042" cy="225.031" r="186.34" style="fill:#f9f7ec;"/><path d="M153.971,386.466c-38.451,-22.232 -68.239,-57.806 -83.017,-100.373c24.521,-9.228 53.266,-3.984 72.985,15.735c22.948,22.948 26.292,58.125 10.032,84.638Z" style="fill:#bfa841;"/><path d="M422.209,288.685c-9.816,-1.312 -18.535,-6.696 -27.265,-11.234c-0.025,0.023 -0.049,0.046 -0.073,0.07c-18.142,-3.226 -25.749,-41.326 -17.234,-62.305c8.554,-21.076 29.956,-30.46 51.945,-27.776c2.492,12.143 3.8,24.715 3.8,37.591c0,22.351 -3.944,43.789 -11.173,63.654Z" style="fill:#814100;"/><circle cx="247.042" cy="225.031" r="110.5" style="fill:#00404d;"/><circle cx="247.042" cy="225.031" r="100" style="fill:#0ac;"/><path d="M176.332,154.319c39.026,-39.027 102.394,-39.027 141.421,-0c39.027,39.027 39.027,102.396 0,141.421c-5.259,-40.696 -28.229,-64.831 -70.711,-70.709c-40.392,-6.264 -63.492,-30.225 -70.71,-70.712Z" style="fill:#00d5ff;"/><path d="M201.999,254.099c-0.003,0.001 -0.005,0.003 -0.007,0.005c-4.875,-7.99 -7.684,-17.375 -7.684,-27.411c0,-36.786 52.734,-72.224 52.734,-72.224c0,0 0.05,0.034 0.148,0.1c-3.366,6.4 -5.271,13.687 -5.271,21.414c0,25.452 20.664,46.115 46.115,46.115c3.895,0 7.677,-0.484 11.291,-1.395c0.295,1.989 0.451,3.987 0.451,5.989c0,5.961 -0.99,11.692 -2.816,17.037c-0.007,0.036 -0.017,0.07 -0.027,0.103c-7.121,20.703 -26.776,35.595 -49.883,35.595l-0.008,0c-9.943,0 -19.248,-2.758 -27.189,-7.55c0.001,-0.001 0.002,-0.003 0.002,-0.004c-7.287,-4.398 -13.425,-10.509 -17.856,-17.775l0,0.001Z"/><path d="M200.463,203.706c13.912,-27.284 46.579,-49.237 46.579,-49.237c0,-0 0.05,0.034 0.148,0.1c-3.366,6.4 -5.271,13.687 -5.271,21.414c0,25.452 20.664,46.115 46.115,46.115c3.895,0 7.677,-0.484 11.291,-1.395c0.295,1.989 0.451,3.987 0.451,5.99c0,5.96 -0.99,11.691 -2.816,17.036c-0.007,0.036 -0.017,0.07 -0.027,0.103c-0.344,0.999 -0.716,1.985 -1.117,2.956c-11.672,-11.544 -27.858,-18.864 -48.774,-21.758c-19.506,-3.025 -34.98,-10.176 -46.579,-21.324Z" style="fill:#002b33;"/><path d="M398.776,270.085c8.8,4.336 17.447,10.303 27.532,10.85c17.683,0.959 33.202,-12.938 50.212,-16.595c6.664,-1.432 13.073,-1.317 19.791,-0.485c1.005,0.125 8.927,1.484 9.586,0.855c0.658,-0.628 -6.906,-7.305 -7.606,-8.181c-6.63,-8.298 -16.749,-12.336 -26.881,-14.409c-27.161,-5.555 -56.984,2.788 -71.466,27.064" style="fill:#c60;"/><path d="M401.017,271.313c-15.292,-2.72 -21.704,-34.836 -14.527,-52.52c8.233,-20.286 30.587,-27.721 51.674,-21.836c37.678,10.514 68.868,58.612 67.701,67.971c-11.918,-8.937 -31.978,-11.533 -53.849,-10.18c-21.794,1.348 -40.253,6.283 -50.999,16.565Z" style="fill:#ffb413;"/><path d="M6.063,439.704c0,0 20.273,-104.063 46.916,-130.706c23.122,-23.123 60.667,-23.123 83.79,0c23.122,23.122 23.122,60.667 0,83.789c-26.644,26.644 -130.706,46.917 -130.706,46.917Z" style="fill:#ece6c6;"/><path d="M78.983,420.898c-35.644,11.544 -72.92,18.806 -72.92,18.806c0,0 11.313,-58.074 28.145,-98.562c1.371,1.794 3.193,3.36 5.547,4.615c5.107,2.721 10.771,3.605 16.512,3.282c1.963,-0.11 3.914,-0.332 5.849,-0.67c0.816,-0.143 2.472,-1.299 2.438,-0.472c-0.454,11.019 -14.174,20.841 -6.236,32.376c3.814,5.543 11.663,7.845 18.087,8.257c2.438,0.157 4.846,0.234 7.288,0.069c1.252,-0.085 3.612,-1.634 3.745,-0.386c0.751,7.077 -7.268,17.3 -8.277,24.463c-0.397,2.816 -0.443,5.566 -0.178,8.222Z" style="fill:#dfd4a0;"/><circle cx="283.705" cy="178.576" r="17.857" style="fill:#ccf7ff;"/></svg>