<?xml version="1.0" encoding="UTF-8" standalone="no"?><!DOCTYPE svg PUBLIC "-//W3C//DTD SVG 1.1//EN" "http://www.w3.org/Graphics/SVG/1.1/DTD/svg11.dtd"><svg width="100%" height="100%" viewBox="0 0 512 512" version="1.1" xmlns="http://www.w3.org/2000/svg" xmlns:xlink="http://www.w3.org/1999/xlink" xml:space="preserve" xmlns:serif="http://www.serif.com/" style="fill-rule:evenodd;clip-rule:evenodd;stroke-linecap:round;stroke-linejoin:round;stroke-miterlimit:1.5;"><path d="M313.951,458.093c-0.731,-0.399 -1.425,-0.931 -2.058,-1.599c-3.472,-3.667 -3.782,-10.031 -0.691,-14.202c1.52,-2.051 2.69,-3.609 3.744,-4.883l0,-67.068l24,-0l0,52.959c1.375,-0.344 2.743,-0.607 4.106,-0.791c10.027,-1.354 19.744,1.621 29.316,8.88c1.872,1.42 3.109,3.583 3.617,5.968c0.553,2.601 0.238,5.466 -1.072,7.916c-0.737,1.378 -1.707,2.473 -2.809,3.256c1.926,2.046 3.777,4.332 5.557,6.859c2.983,4.237 2.511,10.592 -1.055,14.183c-2.352,2.369 -5.468,2.947 -8.172,1.848c-1.394,-0.566 -2.679,-1.578 -3.694,-3.019c-7.443,-10.57 -16.877,-14.498 -28.655,-12.074c-5.426,1.117 -6.112,1.468 -10.749,4.82c-3.896,2.816 -8.927,1.438 -11.385,-3.053Z" style="fill:#ffb413;stroke:#000;stroke-width:42px;"/><rect x="314.946" y="370.341" width="24" height="84.068" style="fill:#ffb413;"/><path d="M314.946,405.259l0,-34.918l24,-0l0,26.961c-7.691,3.299 -15.712,5.972 -24,7.957Z" style="fill:#c60;"/><path d="M323.786,455.579c-3.091,4.171 -8.42,4.581 -11.893,0.915c-3.472,-3.667 -3.782,-10.031 -0.691,-14.202c5.563,-7.509 6.449,-8.397 14.047,-13.047c16.503,-10.099 31.993,-9.328 47.119,2.144c3.914,2.968 5.055,9.189 2.545,13.884c-2.509,4.694 -7.724,6.095 -11.638,3.127c-9.764,-7.405 -19.767,-7.773 -30.419,-1.254c-4.908,3.003 -5.476,3.583 -9.07,8.433Z" style="fill:#ffb413;"/><path d="M375.985,437.357c-1.144,0.046 -2.307,0.06 -3.485,0.039c-16.126,-0.281 -29.156,-6.912 -29.448,-14.887c10.027,-1.354 19.744,1.621 29.316,8.88c1.872,1.42 3.109,3.583 3.617,5.968Z" style="fill:#fd9;"/><path d="M325.336,461.146c-3.989,2.883 -9.166,1.37 -11.555,-3.377c-2.389,-4.747 -1.09,-10.942 2.899,-13.825c7.179,-5.189 8.245,-5.722 16.645,-7.451c18.247,-3.755 32.804,2.52 44.336,18.895c2.983,4.237 2.511,10.592 -1.055,14.183c-3.565,3.591 -8.882,3.066 -11.866,-1.171c-7.443,-10.57 -16.877,-14.498 -28.655,-12.074c-5.426,1.117 -6.112,1.468 -10.749,4.82Z" style="fill:#c60;"/><path d="M368.434,471.419c-1.394,-0.566 -2.679,-1.578 -3.694,-3.019c-7.443,-10.57 -16.877,-14.498 -28.655,-12.074c-5.426,1.117 -6.112,1.468 -10.749,4.82c-3.989,2.883 -9.166,1.37 -11.555,-3.377c-0.177,-0.353 -0.335,-0.713 -0.472,-1.08c6.086,-5.63 14.467,-9.042 23.66,-8.882c15.244,0.266 27.917,10.273 31.465,23.612Z" style="fill:#804000;"/><path d="M168.132,458.142c-0.731,-0.399 -1.426,-0.932 -2.058,-1.6c-3.473,-3.667 -3.783,-10.03 -0.692,-14.202c1.52,-2.051 2.691,-3.608 3.745,-4.883l-0,-67.068l24,0l-0,52.96c1.374,-0.344 2.742,-0.608 4.105,-0.792c10.028,-1.353 19.745,1.621 29.317,8.881c1.871,1.419 3.109,3.582 3.616,5.967c0.554,2.602 0.238,5.467 -1.071,7.916c-0.737,1.379 -1.707,2.473 -2.809,3.256c1.925,2.046 3.777,4.332 5.556,6.859c2.984,4.237 2.511,10.592 -1.054,14.183c-2.353,2.369 -5.468,2.947 -8.172,1.849c-1.395,-0.567 -2.68,-1.578 -3.695,-3.02c-7.443,-10.57 -16.877,-14.497 -28.654,-12.073c-5.426,1.116 -6.112,1.468 -10.749,4.819c-3.897,2.817 -8.928,1.438 -11.385,-3.052Z" style="fill:#ffb413;stroke:#000;stroke-width:42px;"/><rect x="169.127" y="370.389" width="24" height="84.068" style="fill:#ffb413;"/><path d="M169.127,395.412l-0,-25.023l24,0l-0,33.368c-8.297,-2.111 -16.319,-4.915 -24,-8.345Z" style="fill:#c60;"/><path d="M177.967,455.627c-3.091,4.172 -8.42,4.582 -11.893,0.915c-3.473,-3.667 -3.783,-10.03 -0.692,-14.202c5.564,-7.508 6.449,-8.397 14.047,-13.046c16.504,-10.1 31.993,-9.328 47.12,2.144c3.913,2.968 5.054,9.189 2.545,13.883c-2.51,4.694 -7.724,6.095 -11.638,3.127c-9.764,-7.405 -19.767,-7.772 -30.42,-1.253c-4.908,3.003 -5.476,3.582 -9.069,8.432Z" style="fill:#ffb413;"/><path d="M230.165,437.405c-1.144,0.047 -2.307,0.06 -3.485,0.04c-16.125,-0.281 -29.156,-6.913 -29.448,-14.888c10.028,-1.353 19.745,1.621 29.317,8.881c1.871,1.419 3.109,3.582 3.616,5.967Z" style="fill:#fd9;"/><path d="M179.517,461.194c-3.989,2.884 -9.167,1.371 -11.555,-3.376c-2.389,-4.747 -1.09,-10.942 2.898,-13.825c7.18,-5.19 8.245,-5.723 16.646,-7.452c18.246,-3.755 32.804,2.52 44.335,18.895c2.984,4.237 2.511,10.592 -1.054,14.183c-3.566,3.591 -8.883,3.066 -11.867,-1.171c-7.443,-10.57 -16.877,-14.497 -28.654,-12.073c-5.426,1.116 -6.112,1.468 -10.749,4.819Z" style="fill:#c60;"/><path d="M222.615,471.468c-1.395,-0.567 -2.68,-1.578 -3.695,-3.02c-7.443,-10.57 -16.877,-14.497 -28.654,-12.073c-5.426,1.116 -6.112,1.468 -10.749,4.819c-3.989,2.884 -9.167,1.371 -11.555,-3.376c-0.178,-0.353 -0.335,-0.714 -0.472,-1.081c6.085,-5.63 14.467,-9.042 23.659,-8.881c15.245,0.266 27.918,10.272 31.466,23.612Z" style="fill:#804000;"/><circle cx="255.175" cy="214.997" r="175" style="fill:#fff;stroke:#000;stroke-width:21px;stroke-linecap:butt;stroke-miterlimit:2;"/><circle cx="255.175" cy="214.997" r="112" style="fill:#08c;"/><path d="M175.979,135.8c43.709,-43.71 114.682,-43.71 158.392,0c43.71,43.71 43.71,114.683 -0,158.392c-5.89,-45.58 -31.617,-72.611 -79.196,-79.195c-45.24,-7.015 -71.111,-33.851 -79.196,-79.197Z" style="fill:#0af;"/><path d="M204.726,247.554c-0.003,0.001 -0.005,0.003 -0.007,0.005c-5.46,-8.949 -8.607,-19.46 -8.607,-30.7c0,-41.2 59.063,-80.891 59.063,-80.891c-0,0 0.056,0.038 0.165,0.112c-3.77,7.168 -5.903,15.329 -5.903,23.984c0,28.506 23.143,51.649 51.648,51.649c4.363,-0 8.599,-0.543 12.646,-1.563c0.331,2.228 0.506,4.466 0.506,6.708c0,6.676 -1.109,13.095 -3.154,19.081c-0.008,0.04 -0.019,0.079 -0.031,0.116c-7.975,23.187 -29.989,39.866 -55.868,39.866l-0.009,-0c-11.137,-0 -21.558,-3.089 -30.452,-8.456c0.001,-0.001 0.002,-0.003 0.002,-0.004c-8.161,-4.926 -15.036,-11.771 -19.999,-19.908Z"/><path d="M203.006,191.113c15.582,-30.558 52.169,-55.145 52.169,-55.145c-0,0 0.056,0.038 0.165,0.112c-3.77,7.168 -5.903,15.329 -5.903,23.984c0,28.506 23.143,51.649 51.648,51.649c4.363,-0 8.599,-0.543 12.646,-1.563c0.331,2.228 0.506,4.466 0.506,6.709c0,6.675 -1.109,13.094 -3.154,19.08c-0.008,0.04 -0.019,0.079 -0.031,0.116c-0.385,1.118 -0.802,2.223 -1.251,3.31c-13.072,-12.929 -31.201,-21.127 -54.626,-24.369c-21.847,-3.388 -39.178,-11.397 -52.169,-23.883Z" style="fill:#023;"/><path d="M393.426,249.684c8.264,4.072 16.385,9.676 25.856,10.19c16.607,0.9 31.182,-12.151 47.157,-15.585c6.258,-1.345 12.277,-1.237 18.586,-0.456c0.944,0.117 8.384,1.394 9.003,0.803c0.618,-0.59 -6.486,-6.86 -7.143,-7.683c-6.227,-7.793 -15.73,-11.585 -25.245,-13.532c-25.508,-5.217 -53.516,2.618 -67.117,25.417" style="fill:#c60;"/><path d="M395.531,250.837c-14.362,-2.554 -20.384,-32.716 -13.643,-49.324c7.732,-19.051 28.725,-26.034 48.529,-20.507c35.385,9.874 64.677,55.045 63.581,63.835c-11.193,-8.393 -30.032,-10.831 -50.572,-9.561c-20.468,1.266 -37.803,5.901 -47.895,15.557Z" style="fill:#ffb413;"/><path d="M392.001,187.667c10.074,-8.264 24.537,-10.535 38.416,-6.661c34.795,9.71 63.699,53.55 63.611,63.366c0.049,0.124 0.052,0.215 0,0.264c-0.003,0.004 -0.007,0.007 -0.011,0.01c-0.004,0.067 -0.011,0.132 -0.019,0.195c-0.052,-0.039 -0.104,-0.078 -0.156,-0.117c-1.316,0.352 -21.92,4.424 -28.179,5.769c-15.975,3.433 -30.55,16.485 -47.157,15.584c-8.643,-0.469 -16.162,-5.177 -23.692,-9.092c-0.02,0.019 -0.039,0.037 -0.058,0.056" style="fill:none;stroke:#000;stroke-width:21px;"/><path d="M17.934,416.562c-0,-0 20.273,-104.063 46.916,-130.706c23.122,-23.123 60.667,-23.123 83.79,-0c23.122,23.122 23.122,60.667 -0,83.789c-26.644,26.644 -130.706,46.917 -130.706,46.917Z" style="fill:#f5f1e0;"/><path d="M90.854,397.756c-35.644,11.544 -72.92,18.806 -72.92,18.806c-0,-0 11.313,-58.074 28.145,-98.562c1.371,1.794 3.193,3.36 5.547,4.615c5.107,2.721 10.771,3.605 16.512,3.282c1.963,-0.11 3.914,-0.332 5.849,-0.67c0.816,-0.143 2.472,-1.299 2.438,-0.472c-0.454,11.019 -14.174,20.841 -6.236,32.376c3.814,5.543 11.663,7.845 18.087,8.257c2.438,0.157 4.846,0.234 7.288,0.069c1.252,-0.085 3.612,-1.634 3.745,-0.386c0.751,7.077 -7.268,17.3 -8.277,24.463c-0.397,2.816 -0.443,5.566 -0.178,8.222Z" style="fill:#dbcf94;"/><path d="M17.934,416.562c-0,-0 20.273,-104.063 46.916,-130.706c23.122,-23.123 60.667,-23.123 83.79,-0c23.122,23.122 23.122,60.667 -0,83.789c-26.644,26.644 -130.706,46.917 -130.706,46.917Z" style="fill:none;stroke:#000;stroke-width:21px;"/><circle cx="194.827" cy="169.759" r="27" style="fill:#fff;"/></svg>