<?xml version="1.0" encoding="UTF-8" standalone="no"?><!DOCTYPE svg PUBLIC "-//W3C//DTD SVG 1.1//EN" "http://www.w3.org/Graphics/SVG/1.1/DTD/svg11.dtd"><svg width="100%" height="100%" viewBox="0 0 512 512" version="1.1" xmlns="http://www.w3.org/2000/svg" xmlns:xlink="http://www.w3.org/1999/xlink" xml:space="preserve" xmlns:serif="http://www.serif.com/" style="fill-rule:evenodd;clip-rule:evenodd;stroke-linejoin:round;stroke-miterlimit:2;"><rect x="310.687" y="383.441" width="25.555" height="89.516" style="fill:#ffb413;"/><path d="M310.687,420.621l-0,-37.18l25.555,-0l-0,28.708c-8.19,3.513 -16.73,6.359 -25.555,8.472Z" style="fill:#c60;"/><path d="M320.099,474.202c-3.291,4.441 -8.965,4.878 -12.663,0.974c-3.697,-3.904 -4.027,-10.681 -0.736,-15.122c5.923,-7.995 6.867,-8.941 14.957,-13.892c17.573,-10.754 34.066,-9.933 50.172,2.283c4.168,3.16 5.383,9.784 2.71,14.783c-2.671,4.998 -8.224,6.49 -12.392,3.33c-10.396,-7.885 -21.048,-8.277 -32.39,-1.335c-5.226,3.197 -5.831,3.815 -9.658,8.979Z" style="fill:#ffb413;"/><path d="M375.681,454.799c-1.218,0.049 -2.457,0.064 -3.711,0.042c-17.171,-0.299 -31.045,-7.36 -31.356,-15.852c10.677,-1.442 21.023,1.726 31.215,9.456c1.994,1.512 3.311,3.815 3.852,6.354Z" style="fill:#fd9;"/><path d="M321.75,480.13c-4.248,3.07 -9.76,1.459 -12.304,-3.596c-2.544,-5.055 -1.161,-11.651 3.087,-14.721c7.644,-5.525 8.779,-6.093 17.724,-7.934c19.429,-3.998 34.929,2.684 47.208,20.12c3.177,4.511 2.674,11.278 -1.123,15.102c-3.796,3.823 -9.457,3.264 -12.635,-1.247c-7.925,-11.255 -17.97,-15.438 -30.512,-12.857c-5.777,1.19 -6.508,1.564 -11.445,5.133Z" style="fill:#c60;"/><path d="M367.641,491.069c-1.485,-0.603 -2.853,-1.681 -3.934,-3.215c-7.925,-11.255 -17.97,-15.438 -30.512,-12.857c-5.777,1.19 -6.508,1.564 -11.445,5.133c-4.248,3.07 -9.76,1.459 -12.304,-3.596c-0.188,-0.376 -0.357,-0.759 -0.503,-1.15c6.481,-5.995 15.405,-9.628 25.194,-9.458c16.231,0.284 29.726,10.939 33.504,25.143Z" style="fill:#804000;"/><rect x="155.419" y="383.492" width="25.555" height="89.516" style="fill:#ffb413;"/><path d="M155.419,410.136l-0,-26.644l25.555,-0l-0,35.53c-8.835,-2.248 -17.377,-5.233 -25.555,-8.886Z" style="fill:#c60;"/><path d="M164.831,474.253c-3.291,4.443 -8.965,4.879 -12.663,0.974c-3.698,-3.904 -4.028,-10.679 -0.737,-15.122c5.924,-7.994 6.867,-8.941 14.957,-13.891c17.574,-10.755 34.066,-9.933 50.174,2.283c4.166,3.16 5.381,9.784 2.709,14.782c-2.672,4.999 -8.224,6.49 -12.392,3.33c-10.396,-7.885 -21.048,-8.276 -32.391,-1.334c-5.226,3.197 -5.831,3.814 -9.657,8.978Z" style="fill:#ffb413;"/><path d="M220.412,454.85c-1.218,0.05 -2.457,0.064 -3.711,0.043c-17.17,-0.299 -31.045,-7.361 -31.356,-15.853c10.678,-1.44 21.024,1.726 31.217,9.457c1.992,1.511 3.31,3.814 3.85,6.353Z" style="fill:#fd9;"/><path d="M166.482,480.181c-4.248,3.071 -9.761,1.46 -12.304,-3.595c-2.544,-5.054 -1.16,-11.651 3.086,-14.721c7.645,-5.526 8.779,-6.094 17.725,-7.935c19.428,-3.998 34.929,2.684 47.207,20.12c3.178,4.511 2.674,11.278 -1.122,15.102c-3.797,3.824 -9.458,3.265 -12.636,-1.247c-7.925,-11.255 -17.97,-15.436 -30.511,-12.855c-5.777,1.188 -6.508,1.563 -11.445,5.131Z" style="fill:#c60;"/><path d="M212.373,491.121c-1.486,-0.604 -2.854,-1.681 -3.935,-3.216c-7.925,-11.255 -17.97,-15.436 -30.511,-12.855c-5.777,1.188 -6.508,1.563 -11.445,5.131c-4.248,3.071 -9.761,1.46 -12.304,-3.595c-0.189,-0.376 -0.357,-0.76 -0.502,-1.151c6.479,-5.995 15.404,-9.628 25.192,-9.456c16.232,0.283 29.727,10.937 33.505,25.142Z" style="fill:#804000;"/><circle cx="247.042" cy="225.031" r="186.34" style="fill:#fff;"/><circle cx="247.042" cy="225.031" r="119.257" style="fill:#08c;"/><path d="M162.715,140.702c46.541,-46.543 122.113,-46.543 168.655,-0c46.543,46.542 46.543,122.114 0,168.655c-6.271,-48.533 -33.665,-77.316 -84.328,-84.326c-48.171,-7.47 -75.718,-36.045 -84.327,-84.329Z" style="fill:#0af;"/><path d="M193.324,259.697c-0.003,0.001 -0.005,0.003 -0.007,0.006c-5.814,-9.529 -9.165,-20.721 -9.165,-32.69c0,-43.869 62.89,-86.132 62.89,-86.132c0,-0 0.06,0.04 0.176,0.119c-4.014,7.632 -6.285,16.322 -6.285,25.538c-0,30.353 24.642,54.996 54.994,54.996c4.646,-0 9.157,-0.578 13.466,-1.664c0.352,2.372 0.539,4.755 0.539,7.142c-0,7.109 -1.181,13.944 -3.359,20.318c-0.008,0.042 -0.02,0.084 -0.033,0.123c-8.492,24.69 -31.932,42.449 -59.488,42.449l-0.01,0c-11.858,0 -22.954,-3.289 -32.425,-9.004c0.001,-0.001 0.002,-0.003 0.002,-0.004c-8.689,-5.245 -16.01,-12.534 -21.295,-21.198l0,0.001Z"/><path d="M191.493,199.599c16.592,-32.538 55.549,-58.718 55.549,-58.718c0,-0 0.06,0.04 0.176,0.119c-4.014,7.632 -6.285,16.322 -6.285,25.538c-0,30.353 24.642,54.996 54.994,54.996c4.646,-0 9.157,-0.578 13.466,-1.664c0.352,2.372 0.539,4.755 0.539,7.143c-0,7.108 -1.181,13.943 -3.359,20.317c-0.008,0.042 -0.02,0.084 -0.033,0.123c-0.41,1.191 -0.854,2.367 -1.332,3.525c-13.919,-13.767 -33.223,-22.496 -58.166,-25.948c-23.262,-3.608 -41.716,-12.136 -55.549,-25.431Z" style="fill:#023;"/><path d="M398.776,270.085c8.8,4.336 17.447,10.303 27.532,10.85c17.683,0.959 33.202,-12.938 50.212,-16.595c6.664,-1.432 13.073,-1.317 19.791,-0.485c1.005,0.125 8.927,1.484 9.586,0.855c0.658,-0.628 -6.906,-7.305 -7.606,-8.181c-6.63,-8.298 -16.749,-12.336 -26.881,-14.409c-27.161,-5.555 -56.984,2.788 -71.466,27.064" style="fill:#c60;"/><path d="M401.017,271.313c-15.292,-2.72 -21.704,-34.836 -14.527,-52.52c8.233,-20.286 30.587,-27.721 51.674,-21.836c37.678,10.514 68.868,58.612 67.701,67.971c-11.918,-8.937 -31.978,-11.533 -53.849,-10.18c-21.794,1.348 -40.253,6.283 -50.999,16.565Z" style="fill:#ffb413;"/><path d="M6.063,439.704c-0,0 20.273,-104.063 46.916,-130.706c23.122,-23.123 60.667,-23.123 83.79,0c23.122,23.122 23.122,60.667 -0,83.789c-26.644,26.644 -130.706,46.917 -130.706,46.917Z" style="fill:#f5f1e0;"/><path d="M78.983,420.898c-35.644,11.544 -72.92,18.806 -72.92,18.806c-0,0 11.313,-58.074 28.145,-98.562c1.371,1.794 3.193,3.36 5.547,4.615c5.107,2.721 10.771,3.605 16.512,3.282c1.963,-0.11 3.914,-0.332 5.849,-0.67c0.816,-0.143 2.472,-1.299 2.438,-0.472c-0.454,11.019 -14.174,20.841 -6.236,32.376c3.814,5.543 11.663,7.845 18.087,8.257c2.438,0.157 4.846,0.234 7.288,0.069c1.252,-0.085 3.612,-1.634 3.745,-0.386c0.751,7.077 -7.268,17.3 -8.277,24.463c-0.397,2.816 -0.443,5.566 -0.178,8.222Z" style="fill:#dbcf94;"/><circle cx="290.765" cy="169.63" r="21.296" style="fill:#fff;"/></svg>