<?xml version="1.0" encoding="UTF-8" standalone="no"?><!DOCTYPE svg PUBLIC "-//W3C//DTD SVG 1.1//EN" "http://www.w3.org/Graphics/SVG/1.1/DTD/svg11.dtd"><svg width="100%" height="100%" viewBox="0 0 512 512" version="1.1" xmlns="http://www.w3.org/2000/svg" xmlns:xlink="http://www.w3.org/1999/xlink" xml:space="preserve" xmlns:serif="http://www.serif.com/" style="fill-rule:evenodd;clip-rule:evenodd;stroke-linejoin:round;stroke-miterlimit:2;"><path d="M264,438c15.515,0 37.67,-10.378 55.107,-59.819c12.324,-34.942 19.112,-81.175 19.112,-130.181c0,-49.006 -6.788,-95.239 -19.112,-130.181c-17.437,-49.441 -39.592,-59.819 -55.107,-59.819c-15.515,0 -37.67,10.378 -55.107,59.819c-12.324,34.942 -19.112,81.175 -19.112,130.181c0,49.006 6.788,95.239 19.112,130.181c17.437,49.441 39.592,59.819 55.107,59.819Zm0,-357.734c11.258,0 24.329,17.227 34.109,44.959c11.507,32.624 17.844,76.226 17.844,122.775c0,46.549 -6.337,90.151 -17.844,122.775c-9.78,27.732 -22.851,44.959 -34.109,44.959c-11.258,0 -24.329,-17.227 -34.109,-44.959c-11.507,-32.624 -17.844,-76.226 -17.844,-122.775c0,-46.549 6.337,-90.151 17.844,-122.775c9.78,-27.732 22.851,-44.959 34.109,-44.959Z" style="fill:#ff9700;fill-rule:nonzero;"/><path d="M147.906,363.999c8.782,0 19.005,-0.962 30.907,-3.184c36.424,-6.798 79.856,-24.036 122.296,-48.539c42.441,-24.504 79.086,-53.498 103.184,-81.642c34.099,-39.822 32.009,-64.197 24.251,-77.634c-7.757,-13.436 -27.821,-27.433 -79.357,-17.815c-36.424,6.799 -79.856,24.037 -122.296,48.54c-42.441,24.503 -79.086,53.497 -103.184,81.641c-34.099,39.823 -32.009,64.198 -24.251,77.635c5.965,10.332 19.21,20.998 48.45,20.998Zm231.977,-209.662c15.074,0 25.667,3.366 29.379,9.796c5.629,9.75 -2.755,29.683 -21.881,52.019c-22.5,26.277 -57.093,53.567 -97.404,76.841c-40.312,23.273 -81.242,39.587 -115.249,45.935c-28.908,5.394 -50.361,2.69 -55.99,-7.061c-5.63,-9.75 2.755,-29.683 21.881,-52.019c22.5,-26.277 57.093,-53.567 97.404,-76.841c40.312,-23.273 81.242,-39.587 115.249,-45.935c9.845,-1.837 18.825,-2.735 26.611,-2.735Z" style="fill:#e9ff3a;fill-rule:nonzero;"/><path d="M226.891,183.725c12.351,-7.132 24.786,-13.642 37.109,-19.465l0,24.751c-8.638,4.325 -17.321,9 -25.977,13.996c-40.311,23.274 -74.904,50.564 -97.404,76.841c-19.126,22.337 -27.51,42.269 -21.881,52.019c5.629,9.751 27.082,12.455 55.99,7.061c26.706,-4.985 57.68,-16.118 89.272,-31.939l0,24.751c-30.018,14.183 -59.364,24.255 -85.187,29.075c-11.902,2.221 -22.126,3.183 -30.907,3.183c-29.24,0 -42.485,-10.665 -48.45,-20.999c-7.758,-13.436 -9.848,-37.812 24.251,-77.634c24.098,-28.143 60.743,-57.137 103.184,-81.64Z" style="fill:#adff2c;fill-rule:nonzero;"/><path d="M380.094,363.999c29.244,0 42.485,-10.665 48.45,-20.999c7.758,-13.436 9.848,-37.812 -24.251,-77.634c-24.098,-28.144 -60.743,-57.138 -103.184,-81.642c-42.44,-24.503 -85.872,-41.741 -122.296,-48.539c-51.534,-9.619 -71.6,4.378 -79.357,17.814c-7.758,13.437 -9.848,37.812 24.251,77.635c24.098,28.143 60.743,57.138 103.184,81.641c42.44,24.503 85.872,41.741 122.296,48.54c11.899,2.221 22.127,3.184 30.907,3.184Zm-231.977,-209.662c7.786,-0 16.764,0.898 26.611,2.736c34.007,6.347 74.937,22.661 115.249,45.934c40.311,23.274 74.904,50.564 97.404,76.841c19.126,22.336 27.51,42.269 21.881,52.019c-5.629,9.75 -27.083,12.456 -55.99,7.061c-34.007,-6.348 -74.937,-22.661 -115.249,-45.935c-40.311,-23.274 -74.904,-50.564 -97.404,-76.841c-19.126,-22.337 -27.51,-42.269 -21.881,-52.019c3.711,-6.429 14.307,-9.796 29.379,-9.796Z" style="fill:#ff0076;fill-rule:nonzero;"/><path d="M178.813,135.185c25.823,4.82 55.169,14.892 85.187,29.075l0,24.751c-31.592,-15.821 -62.566,-26.953 -89.272,-31.938c-9.847,-1.838 -18.825,-2.736 -26.611,-2.736c-15.072,0 -25.668,3.367 -29.379,9.796c-5.63,9.75 2.755,29.683 21.881,52.019c22.5,26.277 57.093,53.567 97.404,76.841c8.656,4.997 17.339,9.671 25.977,13.996l0,24.751c-12.323,-5.823 -24.758,-12.333 -37.109,-19.465c-42.441,-24.503 -79.086,-53.498 -103.184,-81.641c-34.099,-39.823 -32.009,-64.198 -24.251,-77.635c7.757,-13.436 27.823,-27.433 79.357,-17.814Z" style="fill:#fa0158;fill-rule:nonzero;"/><path d="M229.891,125.225c-11.507,32.624 -17.844,76.226 -17.844,122.775c0,46.549 6.337,90.151 17.844,122.775c9.78,27.732 22.851,44.959 34.109,44.959l0,22.266c-15.515,0 -37.67,-10.378 -55.107,-59.819c-12.324,-34.942 -19.112,-81.175 -19.112,-130.181c0,-49.006 6.788,-95.239 19.112,-130.181c17.437,-49.441 39.592,-59.819 55.107,-59.819l0,22.266c-11.258,0 -24.329,17.227 -34.109,44.959Z" style="fill:#fa7001;fill-rule:nonzero;"/><path d="M264.004,270.259c12.278,0 22.266,-9.988 22.266,-22.266c0,-12.277 -9.988,-22.265 -22.266,-22.265c-12.277,0 -22.265,9.988 -22.265,22.265c0,12.278 9.988,22.266 22.265,22.266Z" style="fill:#fff;fill-rule:nonzero;"/></svg>